<svg xmlns="http://www.w3.org/2000/svg" width="172" height="42" viewBox="0 0 172 42" role="img" aria-labelledby="title desc">
  <title id="title">SynRXN</title>
  <desc id="desc">Compact SynRXN wordmark with reaction-network nodes</desc>
  <defs>
    <linearGradient id="synrxn-bg" x1="0" y1="0" x2="1" y2="1">
      <stop offset="0" stop-color="#17324d"/>
      <stop offset="0.58" stop-color="#245e84"/>
      <stop offset="1" stop-color="#2f77a8"/>
    </linearGradient>
    <linearGradient id="synrxn-node" x1="0" y1="0" x2="1" y2="1">
      <stop offset="0" stop-color="#ffffff"/>
      <stop offset="1" stop-color="#dff1ff"/>
    </linearGradient>
  </defs>
  <rect x="1" y="1" width="170" height="40" rx="12" fill="url(#synrxn-bg)"/>
  <rect x="1.5" y="1.5" width="169" height="39" rx="11.5" fill="none" stroke="#9fd6ff" stroke-opacity="0.35"/>
  <g fill="none" stroke="#9fd6ff" stroke-width="2" stroke-linecap="round" stroke-linejoin="round">
    <path d="M19 21h16m0 0l10-10m-10 10l10 10"/>
    <path d="M45 11l17 10-17 10"/>
    <path d="M62 21h11"/>
  </g>
  <g fill="url(#synrxn-node)" stroke="#17324d" stroke-width="1.5">
    <circle cx="19" cy="21" r="4.7"/>
    <circle cx="35" cy="21" r="4.7"/>
    <circle cx="45" cy="11" r="4.7"/>
    <circle cx="45" cy="31" r="4.7"/>
    <circle cx="62" cy="21" r="4.7"/>
  </g>
  <path d="M72 21h8" stroke="#56b6d8" stroke-width="2.4" stroke-linecap="round"/>
  <text x="86" y="27" fill="#ffffff" font-family="Inter, Arial, Helvetica, sans-serif" font-size="20" font-weight="800" letter-spacing="-.45">SynRXN</text>
</svg>
